<svg width="1006" height="1006" viewBox="0 0 1006 1006" fill="none" xmlns="http://www.w3.org/2000/svg">
<path d="M685.296 660.747C795.393 550.65 795.393 372.147 685.296 262.05C575.199 151.953 396.696 151.953 286.599 262.05C176.501 372.147 176.501 550.65 286.599 660.747C396.696 770.844 575.198 770.844 685.296 660.747Z" fill="#FFF8E3"/>
<path d="M823.591 247.053C823.606 263.226 819.907 279.187 812.781 293.705C805.654 308.224 795.29 320.912 782.486 330.793C780.232 332.543 777.918 334.193 775.524 335.742C770.499 339.038 765.193 341.886 759.669 344.253C748.556 349.072 736.69 351.925 724.6 352.683C722.327 352.824 720.053 352.905 717.739 352.905H716.753C716.391 352.905 716.049 352.905 715.687 352.905C713.414 352.905 711.16 352.744 708.927 352.563C688.44 350.847 668.896 343.203 652.682 330.563C636.467 317.924 624.285 300.836 617.622 281.387C610.959 261.938 610.104 240.969 615.161 221.042C620.218 201.115 630.969 183.092 646.1 169.174C661.231 155.256 680.087 146.046 700.367 142.668C720.646 139.29 741.47 141.89 760.296 150.152C779.121 158.413 795.134 171.978 806.378 189.19C817.621 206.401 823.609 226.515 823.611 247.073L823.591 247.053Z" fill="#498EDE"/>
<path d="M755.928 253.894C755.928 255.738 755.381 257.539 754.357 259.072C753.332 260.604 751.876 261.798 750.173 262.503C748.469 263.207 746.595 263.39 744.788 263.029C742.98 262.668 741.32 261.779 740.018 260.474C738.716 259.169 737.831 257.508 737.473 255.699C737.116 253.891 737.304 252.017 738.012 250.315C738.72 248.613 739.917 247.16 741.452 246.139C742.986 245.118 744.789 244.575 746.633 244.579C747.855 244.579 749.065 244.82 750.194 245.288C751.324 245.757 752.349 246.443 753.213 247.308C754.076 248.174 754.76 249.201 755.226 250.331C755.692 251.461 755.931 252.672 755.928 253.894V253.894Z" fill="#DE9C73"/>
<path d="M697.037 253.894C697.037 255.737 696.491 257.538 695.467 259.07C694.444 260.602 692.989 261.796 691.287 262.501C689.585 263.206 687.712 263.39 685.904 263.031C684.097 262.671 682.438 261.784 681.135 260.481C679.832 259.178 678.945 257.519 678.585 255.712C678.226 253.905 678.41 252.031 679.115 250.329C679.82 248.627 681.014 247.172 682.546 246.149C684.078 245.125 685.879 244.579 687.722 244.579C688.946 244.576 690.158 244.815 691.29 245.282C692.421 245.75 693.449 246.436 694.315 247.301C695.18 248.167 695.866 249.195 696.334 250.326C696.801 251.458 697.04 252.67 697.037 253.894V253.894Z" fill="#DE9C73"/>
<path d="M715.687 306.407V352.884C713.413 352.884 711.16 352.723 708.927 352.542C690.629 351.066 673.037 344.823 657.902 334.434V333.992C657.903 331.827 658.567 329.714 659.804 327.937C661.042 326.16 662.793 324.804 664.824 324.052L691.503 314.174L701.422 311.035L715.687 306.407Z" fill="#FFF5D6"/>
<path d="M775.525 333.992V335.843C770.499 339.139 765.194 341.986 759.67 344.354C748.557 349.173 736.691 352.025 724.601 352.784C722.328 352.925 720.054 353.005 717.74 353.005V306.407L732.086 310.954L741.924 314.073L756.169 319.344L768.583 323.932C770.637 324.687 772.407 326.06 773.649 327.861C774.892 329.662 775.547 331.804 775.525 333.992V333.992Z" fill="#FFF5D6"/>
<path d="M732.085 283.41H701.422V314.073H732.085V283.41Z" fill="#DE9C73"/>
<path d="M716.713 201.2L680.256 221.098L690.859 274.939C692.046 280.975 696.794 287.012 702.931 291.699C705.436 293.599 708.499 294.617 711.643 294.597H722.307C725.696 294.595 728.978 293.406 731.582 291.237C737.055 286.73 741.36 280.694 742.487 274.939L755.122 210.676L716.713 201.2Z" fill="#E8B799"/>
<path d="M679.431 216.793L686.252 251.5L689.23 249.488C689.994 248.957 690.603 248.231 690.992 247.386C691.381 246.54 691.537 245.605 691.443 244.679L687.419 205.928L683.395 207.94C681.866 208.719 680.634 209.976 679.885 211.519C679.137 213.063 678.914 214.809 679.25 216.491L679.431 216.793Z" fill="#453D2C"/>
<path d="M753.956 216.793L747.136 251.5L744.158 249.488C743.393 248.957 742.784 248.231 742.395 247.386C742.006 246.54 741.851 245.605 741.945 244.679L745.969 205.928L749.993 207.94C751.521 208.719 752.754 209.976 753.502 211.519C754.25 213.063 754.473 214.809 754.137 216.491L753.956 216.793Z" fill="#453D2C"/>
<path d="M694.139 195.506H762.326V200.717C762.326 206.117 760.181 211.296 756.362 215.115C752.544 218.933 747.365 221.078 741.965 221.078H685.307V204.298C685.307 203.14 685.535 201.994 685.98 200.924C686.424 199.855 687.075 198.884 687.896 198.067C688.717 197.25 689.691 196.603 690.762 196.164C691.834 195.724 692.981 195.501 694.139 195.506V195.506Z" fill="#453D2C"/>
<path d="M687.722 233.372C690.733 233.372 693.175 229.012 693.175 223.634C693.175 218.255 690.733 213.896 687.722 213.896C684.711 213.896 682.27 218.255 682.27 223.634C682.27 229.012 684.711 233.372 687.722 233.372Z" fill="#453D2C"/>
<path d="M745.767 233.372C748.778 233.372 751.219 229.012 751.219 223.634C751.219 218.255 748.778 213.896 745.767 213.896C742.756 213.896 740.314 218.255 740.314 223.634C740.314 229.012 742.756 233.372 745.767 233.372Z" fill="#453D2C"/>
<path d="M716.754 306.407V352.884C716.392 352.884 716.05 352.884 715.688 352.884C713.414 352.884 711.161 352.723 708.928 352.542L714.139 320.773L711.664 317.413L709.35 314.274L709.531 314.073L715.688 307.534L716.09 307.111L716.754 306.407Z" fill="#FFE987"/>
<path d="M724.601 352.683C722.327 352.824 720.054 352.904 717.74 352.904H716.754V306.427L717.378 307.091L717.74 307.473L723.977 314.093L724.158 314.294L721.804 317.493L719.349 320.793L724.601 352.683Z" fill="#FFE987"/>
<path d="M691.504 314.073L701.423 298.742L717.74 306.407L708.505 323.127L691.504 314.073Z" fill="#FFF8E3"/>
<path d="M741.924 314.073L732.005 298.742L715.688 306.407L724.923 323.127L741.924 314.073Z" fill="#FFF8E3"/>
<path d="M747.619 288.762C747.21 288.685 746.821 288.528 746.473 288.3C746.126 288.071 745.826 287.777 745.593 287.433C745.359 287.089 745.196 286.702 745.112 286.295C745.028 285.888 745.025 285.468 745.104 285.06L754.017 238.542C754.092 238.135 754.247 237.747 754.473 237.4C754.699 237.054 754.993 236.755 755.335 236.523C755.678 236.291 756.063 236.129 756.469 236.048C756.875 235.966 757.293 235.966 757.699 236.047C758.52 236.204 759.246 236.679 759.717 237.369C760.189 238.059 760.367 238.908 760.214 239.729L751.321 286.247C751.16 287.069 750.681 287.795 749.988 288.266C749.294 288.737 748.443 288.915 747.619 288.762V288.762Z" fill="#595959"/>
<path d="M739.611 255.825C739.087 256.083 738.631 256.459 738.276 256.922C737.922 257.386 737.68 257.926 737.569 258.498C737.458 259.071 737.481 259.662 737.636 260.224C737.791 260.787 738.075 261.306 738.464 261.741C741.643 265.302 746.029 270.231 746.512 271.318C746.995 272.404 749.369 281.116 750.777 286.508C750.918 287.041 751.173 287.537 751.526 287.961C751.878 288.385 752.319 288.727 752.817 288.963C753.315 289.199 753.859 289.322 754.41 289.326C754.962 289.33 755.507 289.213 756.008 288.983L765.525 284.657C766.224 284.34 766.81 283.819 767.205 283.161C767.6 282.503 767.786 281.741 767.738 280.975L766.571 260.413C766.523 259.696 766.272 259.007 765.849 258.427C765.425 257.846 764.845 257.398 764.177 257.133L750.717 251.781C750.227 251.586 749.702 251.496 749.175 251.517C748.648 251.537 748.131 251.669 747.659 251.902L739.611 255.825Z" fill="#DE9C73"/>
<path d="M754.5 285.241L756.351 293.993C757.035 293.993 768.946 288.842 768.946 288.842L767.699 279.346L754.5 285.241Z" fill="#DE9C73"/>
<path d="M782.486 330.793C780.232 332.543 777.919 334.193 775.524 335.742C770.499 339.038 765.194 341.886 759.67 344.253C758.764 337.654 757.436 328.157 756.169 319.345C754.338 306.347 752.668 294.557 752.668 294.557L756.229 293.309L768.663 288.963H768.824H768.965L782.486 330.793Z" fill="#FFF8E3"/>
<path d="M808.562 854.395H178.222C174.741 854.385 171.405 852.997 168.944 850.536C166.482 848.074 165.095 844.738 165.084 841.257C165.089 837.772 166.475 834.432 168.937 831.966C171.399 829.5 174.738 828.109 178.222 828.099H808.562C812.048 828.109 815.389 829.499 817.855 831.964C820.32 834.43 821.71 837.771 821.72 841.257V841.257C821.71 844.742 820.319 848.081 817.853 850.543C815.387 853.005 812.047 854.39 808.562 854.395Z" fill="#E0E0E0"/>
<path d="M575.39 386.505C617.816 386.505 652.209 352.112 652.209 309.687C652.209 267.261 617.816 232.869 575.39 232.869C532.965 232.869 498.572 267.261 498.572 309.687C498.572 352.112 532.965 386.505 575.39 386.505Z" fill="white"/>
<path d="M646.173 301.116L665.186 262.405L623.98 263.189L646.173 301.116Z" fill="white"/>
<path d="M565.995 294.834V294.688C566.011 293.143 566.173 291.914 566.48 291C566.788 290.085 567.225 289.345 567.791 288.779C568.357 288.213 569.037 287.691 569.829 287.214C570.307 286.922 570.735 286.579 571.116 286.182C571.496 285.778 571.795 285.313 572.014 284.787C572.24 284.261 572.353 283.679 572.353 283.039C572.353 282.247 572.167 281.559 571.795 280.977C571.423 280.394 570.926 279.945 570.303 279.63C569.68 279.314 568.988 279.156 568.228 279.156C567.564 279.156 566.925 279.294 566.311 279.569C565.696 279.844 565.182 280.277 564.769 280.867C564.357 281.458 564.118 282.231 564.054 283.185H560.996C561.06 281.81 561.416 280.633 562.064 279.654C562.719 278.675 563.58 277.927 564.648 277.409C565.724 276.891 566.917 276.633 568.228 276.633C569.652 276.633 570.889 276.916 571.941 277.482C573.001 278.048 573.818 278.825 574.392 279.812C574.974 280.799 575.266 281.923 575.266 283.185C575.266 284.075 575.128 284.88 574.853 285.6C574.586 286.32 574.198 286.963 573.688 287.529C573.187 288.095 572.58 288.597 571.868 289.034C571.156 289.479 570.586 289.948 570.157 290.441C569.728 290.927 569.417 291.505 569.223 292.177C569.029 292.848 568.923 293.685 568.907 294.688V294.834H565.995ZM567.548 302.017C566.95 302.017 566.436 301.803 566.007 301.374C565.578 300.946 565.364 300.432 565.364 299.833C565.364 299.235 565.578 298.721 566.007 298.292C566.436 297.863 566.95 297.649 567.548 297.649C568.147 297.649 568.661 297.863 569.089 298.292C569.518 298.721 569.732 299.235 569.732 299.833C569.732 300.23 569.631 300.594 569.429 300.925C569.235 301.257 568.972 301.524 568.64 301.726C568.317 301.92 567.953 302.017 567.548 302.017Z" fill="#498EDE"/>
<path d="M207.88 643.759H196.029V828.099H207.88V643.759Z" fill="#498EDE"/>
<path d="M779.005 643.759H767.154V828.099H779.005V643.759Z" fill="#498EDE"/>
<path d="M394.429 834.08C399.794 827.146 398.522 817.176 391.588 811.811C384.653 806.446 374.683 807.718 369.318 814.652C363.953 821.586 365.225 831.556 372.159 836.921C379.093 842.287 389.063 841.015 394.429 834.08Z" fill="#498EDE"/>
<path d="M335.319 817.375V713.757H318.117V817.375H274.416V834.296H375.076V817.375H335.319Z" fill="#498EDE"/>
<path d="M381.697 528.512H267.777C253.809 528.512 242.486 539.835 242.486 553.803V698.888C242.486 712.856 253.809 724.179 267.777 724.179H381.697C395.664 724.179 406.987 712.856 406.987 698.888V553.803C406.987 539.835 395.664 528.512 381.697 528.512Z" fill="#498EDE"/>
<path d="M584.828 510.806H548.893C546.333 510.807 543.798 511.326 541.444 512.332C539.089 513.339 536.962 514.811 535.192 516.661L526.842 525.373L540.805 533.26H567.384C572.031 533.26 576.489 531.414 579.775 528.127C583.062 524.841 584.908 520.383 584.908 515.736L584.828 510.806Z" fill="#FFC18F"/>
<path d="M552.656 534.407L531.329 513.06L469.943 574.446L419.924 521.993C415.347 517.18 409.546 513.702 403.144 511.933V511.933L390.207 537.284L469.882 616.96L472.92 613.942L552.656 534.407Z" fill="#337ACC"/>
<path d="M363.588 469.561H340.551V511.471H363.588V469.561Z" fill="#FFB173"/>
<path d="M331.094 382.481H406.987V451.05C406.987 459.705 403.549 468.006 397.428 474.126C391.308 480.246 383.008 483.685 374.352 483.685H363.709C355.054 483.685 346.753 480.246 340.633 474.126C334.513 468.006 331.074 459.705 331.074 451.05V382.481H331.094Z" fill="#FFC18F"/>
<path d="M335.239 374.091H329.123C323.567 374.091 319.062 378.595 319.062 384.151V442.418C319.062 447.974 323.567 452.478 329.123 452.478H335.239C340.795 452.478 345.299 447.974 345.299 442.418V384.151C345.299 378.595 340.795 374.091 335.239 374.091Z" fill="#BF8238"/>
<path d="M341.878 390.288H335.761C330.205 390.288 325.701 394.792 325.701 400.348V434.008C325.701 439.564 330.205 444.068 335.761 444.068H341.878C347.434 444.068 351.938 439.564 351.938 434.008V400.348C351.938 394.792 347.434 390.288 341.878 390.288Z" fill="#BF8238"/>
<path d="M321.92 443.203C321.92 440.883 322.608 438.615 323.897 436.686C325.186 434.757 327.018 433.254 329.161 432.366C331.304 431.478 333.663 431.246 335.938 431.699C338.214 432.151 340.304 433.268 341.944 434.909C343.585 436.549 344.702 438.639 345.154 440.915C345.607 443.19 345.375 445.549 344.487 447.692C343.599 449.835 342.096 451.667 340.167 452.956C338.238 454.245 335.97 454.933 333.65 454.933C330.539 454.933 327.555 453.697 325.356 451.497C323.156 449.298 321.92 446.314 321.92 443.203V443.203Z" fill="#FFC18F"/>
<path d="M351.396 448.92C353.873 438.384 347.34 427.835 336.804 425.358C326.269 422.881 315.72 429.414 313.243 439.95C310.766 450.486 317.299 461.035 327.835 463.512C338.37 465.989 348.919 459.456 351.396 448.92Z" fill="#424242"/>
<path d="M402.017 383.145C402.019 379.14 401.233 375.174 399.702 371.474C398.172 367.773 395.927 364.411 393.096 361.578C390.265 358.745 386.904 356.498 383.204 354.965C379.505 353.432 375.54 352.643 371.535 352.643H361.596C353.506 352.643 345.748 355.857 340.028 361.577C334.307 367.297 331.094 375.055 331.094 383.145V447.207" stroke="#424242" stroke-width="4" stroke-miterlimit="10"/>
<path d="M349.806 361.878H428.375V379.362C428.375 382.094 427.837 384.8 426.791 387.324C425.746 389.848 424.213 392.141 422.281 394.073C420.35 396.005 418.056 397.537 415.532 398.583C413.008 399.628 410.303 400.166 407.571 400.166H335.34V376.344C335.34 372.508 336.864 368.828 339.577 366.115C342.29 363.402 345.969 361.878 349.806 361.878V361.878Z" fill="#BF8238"/>
<path d="M319.564 444.088C319.568 441.594 320.312 439.157 321.7 437.085C323.089 435.013 325.06 433.399 327.366 432.448C329.671 431.496 332.207 431.249 334.653 431.738C337.099 432.227 339.345 433.43 341.107 435.195C342.869 436.96 344.069 439.208 344.554 441.655C345.039 444.101 344.788 446.637 343.833 448.941C342.877 451.245 341.26 453.214 339.186 454.599C337.112 455.984 334.674 456.724 332.18 456.724C330.521 456.724 328.879 456.397 327.347 455.761C325.816 455.126 324.424 454.195 323.252 453.022C322.081 451.848 321.152 450.455 320.519 448.922C319.886 447.389 319.562 445.747 319.564 444.088V444.088Z" fill="#595959"/>
<path d="M360.973 453.726C361.119 457.857 362.864 461.77 365.838 464.64C368.812 467.511 372.784 469.115 376.918 469.115C381.051 469.115 385.023 467.511 387.998 464.64C390.972 461.77 392.716 457.857 392.863 453.726H360.973Z" fill="white"/>
<path d="M387.833 423.626H385.841C383.641 423.626 381.857 425.41 381.857 427.61V444.692C381.857 446.892 383.641 448.676 385.841 448.676H387.833C390.033 448.676 391.817 446.892 391.817 444.692V427.61C391.817 425.41 390.033 423.626 387.833 423.626Z" fill="#FFB173"/>
<path d="M352.644 498.614L329.304 503.704L286.932 512.919V654.785H406.525V512.919L352.644 498.614Z" fill="#96C7FF"/>
<path d="M340.55 490.143L331.094 503.302L342.844 511.289L355.439 497.165L340.55 490.143Z" fill="#337ACC"/>
<path d="M363.749 490.626L372.904 503.986L362.341 511.289L350.369 497.105L363.749 490.626Z" fill="#337ACC"/>
<path d="M286.931 512.919L286.63 513.16C281.782 517.232 277.835 522.268 275.041 527.949L236.229 607.201C235.224 608.867 234.68 610.77 234.652 612.715C234.623 614.66 235.112 616.577 236.067 618.272C237.023 619.966 238.411 621.376 240.091 622.358C241.77 623.34 243.68 623.859 245.625 623.861H345.259V601.588H276.71C276.147 601.587 275.595 601.435 275.11 601.149C274.625 600.863 274.226 600.453 273.953 599.96C273.68 599.468 273.544 598.911 273.558 598.348C273.572 597.786 273.737 597.237 274.035 596.759L287.354 572.494L286.931 512.919Z" fill="#337ACC"/>
<path d="M369 606.014H345.781V623.861H386.846C386.846 619.127 384.966 614.588 381.619 611.241C378.272 607.894 373.733 606.014 369 606.014Z" fill="#FFC18F"/>
<path d="M345.238 601.507H292.262V623.861H345.238V601.507Z" fill="#337ACC"/>
<path d="M512.314 691.142C507.35 684.762 500.993 679.6 493.73 676.05C486.467 672.5 478.489 670.657 470.404 670.66H459.197C456.227 665.803 452.057 661.792 447.089 659.012C442.121 656.232 436.521 654.777 430.828 654.785H289.988V676.615C289.988 684.62 293.168 692.296 298.828 697.956C304.488 703.616 312.164 706.795 320.168 706.795H407.932L333.427 781.461L359.04 807.053L454.389 711.685C455.879 710.212 457.226 708.602 458.413 706.876H470.485C473.058 706.874 475.598 707.46 477.91 708.59C480.222 709.72 482.245 711.363 483.824 713.395L560.643 811.983L589.233 789.73L512.314 691.142Z" fill="#205A9D"/>
<path d="M560.535 811.57L597.473 781.86C602.138 778.108 608.103 776.363 614.055 777.008C620.007 777.654 625.459 780.637 629.212 785.303L635.088 792.609L588.383 830.174C586.304 831.846 583.646 832.624 580.993 832.336C578.341 832.049 575.911 830.719 574.239 828.64L560.494 811.551L560.535 811.57Z" fill="#424242"/>
<path d="M333.143 780.707L366.662 814.225C368.758 816.322 370.421 818.81 371.555 821.549C372.69 824.288 373.274 827.224 373.274 830.188C373.274 833.153 372.69 836.088 371.555 838.827C370.421 841.566 368.758 844.055 366.662 846.151L360.032 852.781L317.65 810.398C315.763 808.512 314.703 805.953 314.703 803.285C314.703 800.617 315.763 798.058 317.65 796.171L333.129 780.692L333.143 780.707Z" fill="#424242"/>
<path d="M278.751 828.111C280.885 819.608 275.722 810.984 267.218 808.85C258.715 806.715 250.091 811.879 247.956 820.382C245.822 828.886 250.985 837.51 259.489 839.644C267.992 841.778 276.616 836.615 278.751 828.111Z" fill="#498EDE"/>
<path d="M339.645 457.81C339.645 457.81 344.393 477.387 369.04 476.461" stroke="#424242" stroke-width="3" stroke-miterlimit="10"/>
<path d="M369.04 479.379C372.04 479.379 374.472 476.947 374.472 473.947C374.472 470.946 372.04 468.514 369.04 468.514C366.04 468.514 363.607 470.946 363.607 473.947C363.607 476.947 366.04 479.379 369.04 479.379Z" fill="#424242"/>
<path d="M739.67 578.49H552.554C552.101 578.49 551.654 578.384 551.248 578.18C550.843 577.977 550.491 577.682 550.219 577.319C549.948 576.956 549.765 576.534 549.685 576.088C549.604 575.641 549.63 575.183 549.758 574.748L587.986 446.523C588.181 445.936 588.556 445.425 589.058 445.064C589.56 444.702 590.164 444.509 590.782 444.511H777.898C778.352 444.511 778.799 444.617 779.204 444.82C779.61 445.024 779.962 445.318 780.234 445.682C780.505 446.045 780.688 446.467 780.768 446.913C780.848 447.359 780.823 447.818 780.695 448.253L742.467 576.458C742.276 577.049 741.902 577.564 741.399 577.929C740.897 578.294 740.292 578.49 739.67 578.49Z" fill="white"/>
<path d="M745.807 578.49H558.691C558.238 578.49 557.79 578.384 557.385 578.18C556.98 577.977 556.627 577.682 556.356 577.319C556.084 576.956 555.901 576.534 555.821 576.088C555.741 575.641 555.766 575.183 555.894 574.748L594.122 446.523C594.315 445.934 594.689 445.422 595.192 445.06C595.695 444.698 596.3 444.506 596.919 444.511H784.035C784.489 444.511 784.936 444.617 785.341 444.82C785.747 445.024 786.099 445.319 786.37 445.682C786.642 446.045 786.825 446.467 786.905 446.913C786.985 447.359 786.96 447.818 786.832 448.253L748.604 576.458C748.415 577.05 748.042 577.567 747.539 577.933C747.036 578.298 746.429 578.493 745.807 578.49V578.49Z" fill="#498EDE"/>
<path d="M657.924 545.594H646.174V578.409H657.924V545.594Z" fill="#337ACC"/>
<path d="M681.403 541.469H649.714C649.198 541.469 648.688 541.581 648.219 541.796C647.749 542.012 647.332 542.326 646.996 542.718C646.66 543.109 646.412 543.569 646.27 544.066C646.128 544.562 646.095 545.084 646.173 545.594L656.575 612.553C656.657 613.065 656.626 613.589 656.486 614.087C656.345 614.586 656.098 615.049 655.761 615.443C655.425 615.837 655.006 616.153 654.536 616.37C654.065 616.587 653.553 616.699 653.034 616.698H603.921C603.45 616.695 602.983 616.786 602.548 616.965C602.112 617.144 601.716 617.408 601.383 617.741C601.05 618.074 600.786 618.47 600.607 618.906C600.428 619.341 600.337 619.808 600.34 620.279V620.279C600.34 621.229 600.717 622.14 601.389 622.812C602.06 623.483 602.971 623.861 603.921 623.861H693.093C693.611 623.861 694.124 623.749 694.595 623.533C695.065 623.316 695.484 623 695.82 622.606C696.157 622.212 696.404 621.749 696.545 621.25C696.685 620.751 696.716 620.228 696.634 619.716L684.944 544.487C684.81 543.645 684.38 542.878 683.731 542.325C683.082 541.772 682.256 541.468 681.403 541.469V541.469Z" fill="#337ACC"/>
<path d="M487.508 503.986C518.066 503.986 542.838 479.214 542.838 448.656C542.838 418.098 518.066 393.326 487.508 393.326C456.95 393.326 432.178 418.098 432.178 448.656C432.178 479.214 456.95 503.986 487.508 503.986Z" fill="#498EDE"/>
<path d="M458.233 485.013L448.615 448.656L423.586 480.928L458.233 485.013Z" fill="#498EDE"/>
<path d="M464.51 445.034C465.229 444.076 466.217 443.353 467.348 442.958C468.479 442.563 469.702 442.513 470.862 442.815C472.021 443.118 473.064 443.758 473.858 444.655C474.652 445.552 475.162 446.665 475.321 447.853C475.48 449.04 475.283 450.248 474.754 451.323C474.224 452.398 473.387 453.291 472.349 453.888C471.31 454.486 470.117 454.76 468.922 454.678C467.727 454.595 466.583 454.159 465.637 453.424C464.386 452.453 463.567 451.029 463.356 449.46C463.146 447.89 463.56 446.301 464.51 445.034V445.034Z" fill="white"/>
<path d="M482.759 445.034C483.477 444.076 484.465 443.353 485.596 442.958C486.727 442.563 487.95 442.513 489.11 442.815C490.269 443.118 491.312 443.758 492.106 444.655C492.9 445.552 493.41 446.665 493.569 447.853C493.729 449.04 493.531 450.248 493.002 451.323C492.472 452.398 491.635 453.291 490.597 453.888C489.558 454.486 488.366 454.76 487.17 454.678C485.975 454.595 484.832 454.159 483.885 453.424C482.634 452.453 481.815 451.029 481.605 449.46C481.394 447.89 481.808 446.301 482.759 445.034V445.034Z" fill="white"/>
<path d="M500.987 445.034C501.706 444.076 502.694 443.353 503.825 442.958C504.956 442.563 506.179 442.513 507.338 442.815C508.498 443.118 509.541 443.758 510.335 444.655C511.129 445.552 511.638 446.665 511.798 447.853C511.957 449.04 511.76 450.248 511.23 451.323C510.701 452.398 509.864 453.291 508.825 453.888C507.787 454.486 506.594 454.76 505.399 454.678C504.204 454.595 503.06 454.159 502.114 453.424C500.863 452.453 500.044 451.029 499.833 449.46C499.622 447.89 500.037 446.301 500.987 445.034V445.034Z" fill="white"/>
<path d="M779.006 623.861H196.029V643.759H779.006V623.861Z" fill="#424242"/>
</svg>
